<svg id="틱톡_아이콘" xmlns="http://www.w3.org/2000/svg" xmlns:xlink="http://www.w3.org/1999/xlink" width="15.343" height="15.343" viewBox="0 0 15.343 15.343">
  <defs>
    <radialGradient id="radial-gradient" cx="0.5" cy="0.5" r="0.5" gradientTransform="matrix(1, 0, 0, -1, 0, 1.003)" gradientUnits="objectBoundingBox">
      <stop offset="0" stop-color="#ff004f" stop-opacity="0.2"/>
      <stop offset="1" stop-color="#ff004f" stop-opacity="0.102"/>
    </radialGradient>
  </defs>
  <path id="패스_6" data-name="패스 6" d="M15.343,11.507a3.836,3.836,0,0,1-3.836,3.836H3.836A3.836,3.836,0,0,1,0,11.507V3.836A3.836,3.836,0,0,1,3.836,0h7.671a3.836,3.836,0,0,1,3.836,3.836Z"/>
  <path id="패스_7" data-name="패스 7" d="M15.343,11.507a3.836,3.836,0,0,1-3.836,3.836H3.836A3.836,3.836,0,0,1,0,11.507V3.836A3.836,3.836,0,0,1,3.836,0h7.671a3.836,3.836,0,0,1,3.836,3.836Z" fill="url(#radial-gradient)"/>
  <path id="패스_8" data-name="패스 8" d="M334.146,667.763l0-.473a3.249,3.249,0,0,0-.43-.03,3.186,3.186,0,0,0-1.823,5.8c-.118-.431-.812-1.329-.812-2.166a3.1,3.1,0,0,1,3.067-3.128Z" transform="translate(-327.501 -661.145)" fill="#25f4ee"/>
  <path id="패스_9" data-name="패스 9" d="M605.878,272.143a1.441,1.441,0,0,0,1.464-1.427l.011-6.9a11.616,11.616,0,0,0,1.225-.042,2.483,2.483,0,0,1-.04-.44h-1.73l0,6.941a1.456,1.456,0,0,1-1.452,1.4,1.438,1.438,0,0,1-.676-.168C604.676,271.717,605.389,272.173,605.878,272.143Z" transform="translate(-599.138 -260.917)" fill="#25f4ee"/>
  <path id="패스_10" data-name="패스 10" d="M1146.9,484.467v-.386a2.381,2.381,0,0,1-1.312-.391C1145.741,484.262,1146.464,484.763,1146.9,484.467Z" transform="translate(-1135.092 -479.258)" fill="#25f4ee"/>
  <path id="패스_11" data-name="패스 11" d="M1027.849,312.939a2.4,2.4,0,0,1-.592-1.579h-.5c.119.66.423,1.516,1.089,1.579Z" transform="translate(-1017.352 -308.507)" fill="#fe2c55"/>
  <path id="패스_12" data-name="패스 12" d="M520.954,716.291a1.456,1.456,0,0,0-1.454,1.455c0,.559.4,1.4.781,1.289a1.441,1.441,0,0,1-.276-.849,1.447,1.447,0,0,1,1.884-1.388V715.03a3.249,3.249,0,0,0-.43-.03l-.075,0-.051,1.3A1.146,1.146,0,0,0,520.954,716.291Z" transform="translate(-514.74 -708.448)" fill="#fe2c55"/>
  <path id="패스_13" data-name="패스 13" d="M486.449,568.45l-.058,1.311a4.015,4.015,0,0,1-2.364-.808l-.043,3.589a3.086,3.086,0,0,1-3.089,3.145,8.939,8.939,0,0,1-1.864-.534,3.183,3.183,0,0,0,5.517-2.171v-3.521a4.117,4.117,0,0,0,2.408.774V568.5A2.369,2.369,0,0,1,486.449,568.45Z" transform="translate(-474.641 -563.241)" fill="#fe2c55"/>
  <path id="패스_14" data-name="패스 14" d="M391.567,317.808v-3.521a4.118,4.118,0,0,0,2.408.774v-1.345a3.868,3.868,0,0,1-2.368-2.356H390.34l0,6.941a2.067,2.067,0,1,1-1.528-1.881v-1.357a2.974,2.974,0,1,0,2.758,2.744Z" transform="translate(-382.166 -308.507)" fill="#fff"/>
</svg>
