<svg xmlns="http://www.w3.org/2000/svg" width="41.18" height="43.008" viewBox="0 0 41.18 43.008">
  <g id="그룹_183" data-name="그룹 183" transform="translate(-103.179 -224)">
    <g id="그룹_182" data-name="그룹 182" transform="translate(103.179 235.579)">
      <path id="패스_19" data-name="패스 19" d="M136.124,240.481c.99,0,1.98,1.113,2.207,2.481l3.574,21.5a2.026,2.026,0,0,1-2.01,2.481H107.6a1.96,1.96,0,0,1-1.933-2.481l4.24-21.5c.27-1.368,1.294-2.481,2.284-2.481h23.937M135.771,238H112.618c-1.918,0-3.963,2.222-4.569,4.962l-4.749,21.5a3.861,3.861,0,0,0,3.867,4.962h33.083a3.991,3.991,0,0,0,4.02-4.962l-4.083-21.5c-.52-2.741-2.5-4.962-4.415-4.962Z" transform="translate(-103.179 -238)" fill="#f64b35"/>
    </g>
    <path id="패스_20" data-name="패스 20" d="M134.3,241.782a1.24,1.24,0,0,1-1.241-1.241v-8.271a5.789,5.789,0,1,0-11.579,0v8.271a1.241,1.241,0,0,1-2.481,0v-8.271a8.271,8.271,0,1,1,16.541,0v8.271A1.24,1.24,0,0,1,134.3,241.782Z" transform="translate(-2.736)" fill="#f64b35"/>
  </g>
</svg>
