<svg xmlns="http://www.w3.org/2000/svg" width="39.188" height="45" viewBox="0 0 39.188 45">
  <g id="그룹_185" data-name="그룹 185" transform="translate(-163.755 -129.136)">
    <path id="패스_21" data-name="패스 21" d="M199.829,131.139a.51.51,0,0,1,.434.356l.65,16.152-18.345,24.486a.448.448,0,0,1-.262-.1l-16.372-12.266a.454.454,0,0,1-.171-.222l18.345-24.487,15.684-3.914a.149.149,0,0,1,.036,0m0-2a2.167,2.167,0,0,0-.521.063l-16.375,4.087L164.115,158.4a2.151,2.151,0,0,0,.618,2.966l16.372,12.266a2.453,2.453,0,0,0,1.464.5,1.914,1.914,0,0,0,1.557-.741l18.817-25.117-.679-16.864a2.478,2.478,0,0,0-2.435-2.278Z" transform="translate(0 0)" fill="#f64b35"/>
    <path id="패스_22" data-name="패스 22" d="M209.339,138A1.335,1.335,0,1,1,208,139.339,1.337,1.337,0,0,1,209.339,138m0-2a3.339,3.339,0,1,0,3.339,3.339A3.339,3.339,0,0,0,209.339,136Z" transform="translate(-14.037 -2.281)" fill="#f64b35"/>
    <path id="패스_23" data-name="패스 23" d="M186.339,159A1.335,1.335,0,1,1,185,160.339,1.337,1.337,0,0,1,186.339,159m0-2a3.339,3.339,0,1,0,3.339,3.339A3.339,3.339,0,0,0,186.339,157Z" transform="translate(-6.395 -9.258)" fill="#f64b35"/>
    <path id="패스_24" data-name="패스 24" d="M190.339,175A1.335,1.335,0,1,1,189,176.339,1.337,1.337,0,0,1,190.339,175m0-2a3.339,3.339,0,1,0,3.339,3.339A3.339,3.339,0,0,0,190.339,173Z" transform="translate(-7.724 -14.574)" fill="#f64b35"/>
    <g id="그룹_184" data-name="그룹 184" transform="translate(173.6 153.705)">
      <line id="선_10" data-name="선 10" y1="2.763" x2="13.355" transform="translate(1.002 1.002)" fill="#fff"/>
      <path id="패스_25" data-name="패스 25" d="M179.5,170.7a1,1,0,0,1-.2-1.982l13.355-2.763a1,1,0,0,1,.406,1.962L179.7,170.676A1.017,1.017,0,0,1,179.5,170.7Z" transform="translate(-178.5 -165.93)" fill="#f64b35"/>
    </g>
  </g>
</svg>
