<svg xmlns="http://www.w3.org/2000/svg" width="12.053" height="14.172" viewBox="0 0 12.053 14.172">
  <g id="다각형_1" data-name="다각형 1" transform="matrix(-0.921, -0.391, 0.391, -0.921, 7.364, 14.172)" fill="#ffeeed">
    <path d="M 6.612569808959961 11.49999713897705 L 1.387429714202881 11.49999713897705 C 1.224759817123413 11.49999713897705 1.076919794082642 11.42431735992432 0.9818097352981567 11.29235744476318 C 0.8866897821426392 11.16038703918457 0.8616397380828857 10.99619770050049 0.9130797386169434 10.84187698364258 L 3.525659799575806 3.004157304763794 C 3.631409645080566 2.68693733215332 3.915459871292114 2.662277460098267 3.999999761581421 2.662277460098267 C 4.084539890289307 2.662277460098267 4.368589878082275 2.68693733215332 4.474339962005615 3.004167318344116 L 7.086919784545898 10.84187698364258 C 7.138359546661377 10.99619770050049 7.113309860229492 11.16038703918457 7.018189907073975 11.29235744476318 C 6.923079967498779 11.42431735992432 6.775239944458008 11.49999713897705 6.612569808959961 11.49999713897705 Z" stroke="none"/>
    <path d="M 3.999999761581421 3.162277221679688 L 1.387593269348145 10.99999713897705 L 6.612579822540283 10.99999713897705 L 3.999999761581421 3.162277221679688 M 3.999996185302734 2.162280082702637 C 4.398362159729004 2.162280082702637 4.796730041503906 2.390202522277832 4.94867992401123 2.846047401428223 L 7.561259746551514 10.68376731872559 C 7.777099609375 11.33130741119385 7.295129776000977 11.99999713897705 6.612569808959961 11.99999713897705 L 1.387429714202881 11.99999713897705 C 0.7048697471618652 11.99999713897705 0.2228999137878418 11.33130741119385 0.4387397766113281 10.68376731872559 L 3.051319599151611 2.846047401428223 C 3.203264713287354 2.390202522277832 3.601629734039307 2.162280082702637 3.999996185302734 2.162280082702637 Z" stroke="none" fill="#ffeeed"/>
  </g>
</svg>
